<svg width="26" height="26" viewBox="0 0 26 26" fill="none" xmlns="http://www.w3.org/2000/svg">
<path d="M19.4998 5.1998H6.4998L8.80294 1.74511C8.9884 1.46691 9.30064 1.2998 9.63499 1.2998H16.3646C16.699 1.2998 17.0112 1.46691 17.1967 1.7451L19.4998 5.1998Z" fill="#DCDCDC"/>
<path d="M1.2998 5.1998H24.6998M6.4998 5.1998L8.80294 1.74511C8.9884 1.46691 9.30064 1.2998 9.63499 1.2998H16.3646C16.699 1.2998 17.0112 1.46691 17.1967 1.7451L19.4998 5.1998H6.4998Z" stroke="#DCDCDC" stroke-width="2" stroke-linecap="round"/>
<path d="M2.77685 10.2522L5.06916 25.1522C5.14421 25.64 5.56396 26.0001 6.05753 26.0001H19.9417C20.4353 26.0001 20.855 25.64 20.9301 25.1522L23.2224 10.2522C23.3156 9.6464 22.8469 9.1001 22.234 9.1001H3.76522C3.15234 9.1001 2.68366 9.6464 2.77685 10.2522Z" fill="#DCDCDC"/>
</svg>
