<svg width="26" height="26" viewBox="0 0 26 26" fill="none" xmlns="http://www.w3.org/2000/svg">
<g clip-path="url(#clip0_1711_15906)">
<path d="M15.8879 16.0971V19.0012C15.8879 19.5334 15.5794 19.6614 15.2041 19.2844L9.60896 13.6836C9.23367 13.3066 9.23367 12.6915 9.60896 12.3146L15.2041 6.71555C15.5794 6.33856 15.8879 6.46663 15.8879 6.99875V9.90287C15.8879 10.435 16.3228 10.8715 16.855 10.8715H25.9018C24.886 4.70432 19.538 0 13.0877 0C5.91375 0 0.0966797 5.82087 0.0966797 13C0.0966797 20.1791 5.91375 26 13.0877 26C19.538 26 24.886 21.2957 25.9018 15.1285H16.855C16.3228 15.1285 15.8879 15.565 15.8879 16.0971Z" fill="#DCDCDC"/>
</g>
<defs>
<clipPath id="clip0_1711_15906">
<rect width="26" height="26" fill="white"/>
</clipPath>
</defs>
</svg>
