<svg width="26" height="26" viewBox="0 0 26 26" fill="none" xmlns="http://www.w3.org/2000/svg">
<g clip-path="url(#clip0_1711_15873)">
<path fill-rule="evenodd" clip-rule="evenodd" d="M0.642441 2.80422C0.948328 1.10989 2.46132 0 4.18304 0H21.817C23.5387 0 25.0517 1.10989 25.3576 2.80423C25.68 4.59036 26 7.1752 26 10.4V16.8021C26 19.0113 24.2091 20.8 22 20.8H18.55C17.9205 20.8 17.3277 21.0964 16.95 21.6L13.95 25.6C13.7611 25.8518 13.4648 26 13.15 26H12.85C12.5352 26 12.2389 25.8518 12.05 25.6L9.05 21.6C8.67229 21.0964 8.07951 20.8 7.45 20.8H4C1.79086 20.8 0 19.0113 0 16.8021V10.4C0 7.1752 0.31998 4.59036 0.642441 2.80422ZM5.5 6.5C5.5 5.94772 5.94772 5.5 6.5 5.5H18.2C18.7523 5.5 19.2 5.94772 19.2 6.5C19.2 7.05228 18.7523 7.5 18.2 7.5H6.5C5.94772 7.5 5.5 7.05228 5.5 6.5ZM6.5 12C5.94772 12 5.5 12.4477 5.5 13C5.5 13.5523 5.94772 14 6.5 14H13C13.5523 14 14 13.5523 14 13C14 12.4477 13.5523 12 13 12H6.5Z" fill="#DCDCDC"/>
</g>
<defs>
<clipPath id="clip0_1711_15873">
<rect width="26" height="26" fill="white"/>
</clipPath>
</defs>
</svg>
