<svg width="26" height="26" viewBox="0 0 26 26" fill="none" xmlns="http://www.w3.org/2000/svg">
<g clip-path="url(#clip0_1711_15878)">
<path d="M24.7325 12.6425H19.5V1.80377C19.5011 1.5666 19.4552 1.33156 19.3649 1.11223C19.2746 0.892906 19.1418 0.693635 18.9741 0.525926C18.8064 0.358218 18.6071 0.225396 18.3878 0.13513C18.1685 0.0448639 17.9334 -0.00105716 17.6963 1.84677e-05H1.80377C1.5666 -0.00105716 1.33156 0.0448639 1.11223 0.13513C0.892906 0.225396 0.693635 0.358218 0.525926 0.525926C0.358218 0.693635 0.225396 0.892906 0.13513 1.11223C0.0448639 1.33156 -0.00105716 1.5666 1.84677e-05 1.80377V21.125C1.84677e-05 22.4179 0.513633 23.6579 1.42787 24.5722C2.34211 25.4864 3.58209 26 4.87502 26H21.5963C22.7746 25.9703 23.8946 25.4813 24.7173 24.6373C25.5401 23.7933 26.0004 22.6612 26 21.4825V13.9019C26 13.7358 25.9672 13.5714 25.9034 13.4181C25.8396 13.2647 25.7461 13.1255 25.6283 13.0085C25.5105 12.8914 25.3707 12.7988 25.217 12.736C25.0632 12.6732 24.8986 12.6414 24.7325 12.6425ZM9.39252 16.25H4.33064V13H9.39252V16.25ZM14.8038 9.75002H4.33064V6.50002H14.8038V9.75002ZM23.4731 21.3688C23.4842 21.8753 23.3092 22.3683 22.9813 22.7546C22.6534 23.1409 22.1954 23.3936 21.6938 23.465C21.4167 23.4922 21.1371 23.4612 20.8727 23.374C20.6084 23.2868 20.3652 23.1454 20.1586 22.9587C19.9521 22.7721 19.7868 22.5444 19.6734 22.2902C19.56 22.036 19.501 21.7609 19.5 21.4825V15.1694H23.4731V21.3688Z" fill="#DCDCDC"/>
</g>
<defs>
<clipPath id="clip0_1711_15878">
<rect width="26" height="26" fill="white"/>
</clipPath>
</defs>
</svg>
