<svg width="26" height="26" viewBox="0 0 26 26" fill="none" xmlns="http://www.w3.org/2000/svg">
<g clip-path="url(#clip0_1711_15901)">
<path fill-rule="evenodd" clip-rule="evenodd" d="M25.8537 7.5404C24.4711 5.21781 22.5029 3.29896 20.1459 1.97576C17.789 0.652562 15.1259 -0.0286009 12.4231 0.000400561H12.1875C12.0285 0.00138821 11.8718 0.0371551 11.7281 0.10519C11.5845 0.173224 11.4575 0.271876 11.3561 0.394218C11.2546 0.51656 11.1812 0.659625 11.141 0.813366C11.1007 0.967108 11.0946 1.1278 11.1231 1.28415L13.1137 11.6354C13.1458 11.7867 13.2095 11.9295 13.3006 12.0544C13.3917 12.1794 13.5083 12.2836 13.6425 12.3603C13.7768 12.4371 13.9258 12.4845 14.0797 12.4996C14.2336 12.5147 14.389 12.4971 14.5356 12.4479L25.22 9.1004C25.3747 9.05394 25.517 8.97339 25.6365 8.86467C25.756 8.75594 25.8496 8.62181 25.9104 8.47215C25.9712 8.32248 25.9976 8.16109 25.9878 7.99984C25.978 7.83859 25.9322 7.6816 25.8537 7.5404Z" fill="#DCDCDC"/>
<path fill-rule="evenodd" clip-rule="evenodd" d="M23.3594 12.3419L12.5937 15.7138C12.4476 15.7603 12.2934 15.7759 12.1409 15.7596C11.9883 15.7432 11.8409 15.6953 11.7079 15.6189C11.5749 15.5425 11.4593 15.4392 11.3684 15.3157C11.2775 15.1921 11.2134 15.051 11.18 14.9013L9.15687 4.35503C9.12445 4.19532 9.05735 4.04468 8.96032 3.91374C8.86328 3.78281 8.73868 3.67478 8.59531 3.59728C8.45195 3.51978 8.29331 3.47472 8.13062 3.46526C7.96792 3.4558 7.80513 3.48218 7.65375 3.54253C5.43826 4.35633 3.52119 5.82203 2.15497 7.74663C0.788752 9.67124 0.037451 11.9645 0 14.3244C0 20.7757 5.5575 26 12.4231 26C19.2887 26 24.8462 20.7757 24.8462 14.3244C24.8462 13.9669 24.8462 13.6094 24.7894 13.2519C24.7698 13.091 24.7148 12.9365 24.6284 12.7994C24.5419 12.6622 24.4262 12.546 24.2894 12.459C24.1527 12.372 23.9983 12.3163 23.8375 12.2961C23.6767 12.2759 23.5134 12.2915 23.3594 12.3419Z" fill="#DCDCDC"/>
</g>
<defs>
<clipPath id="clip0_1711_15901">
<rect width="26" height="26" fill="white"/>
</clipPath>
</defs>
</svg>
