<svg width="26" height="26" viewBox="0 0 26 26" fill="none" xmlns="http://www.w3.org/2000/svg">
<path fill-rule="evenodd" clip-rule="evenodd" d="M1.91823 13.7868L1.49223 6.971C1.37907 5.16044 2.49853 3.50041 4.21953 2.92674L12.0516 0.316059C12.6674 0.110792 13.3331 0.110793 13.9489 0.31606L21.781 2.92675C23.502 3.50042 24.6215 5.16043 24.5083 6.97099L24.0823 13.7867C24.061 14.1285 24.0232 14.4686 23.9349 14.7995C23.622 15.9727 22.5638 19.0363 19.5003 22.0998C15.6003 25.9998 13.0003 25.9998 13.0003 25.9998C13.0003 25.9998 10.4003 25.9998 6.50027 22.0998C3.43667 19.0362 2.37856 15.9726 2.06563 14.7995C1.97735 14.4686 1.93959 14.1286 1.91823 13.7868ZM16.9003 10.3998C16.9003 12.0979 15.815 13.5425 14.3003 14.0779V16.8998C14.3003 17.6178 13.7182 18.1998 13.0003 18.1998C12.2823 18.1998 11.7003 17.6178 11.7003 16.8998V14.0779C10.1855 13.5425 9.10027 12.0979 9.10027 10.3998C9.10027 8.24592 10.8464 6.49983 13.0003 6.49983C15.1542 6.49983 16.9003 8.24592 16.9003 10.3998Z" fill="#DCDCDC"/>
</svg>
