<svg width="26" height="26" viewBox="0 0 26 26" fill="none" xmlns="http://www.w3.org/2000/svg">
    <g clip-path="url(#clip0_1711_16808)">
        <path fill-rule="evenodd" clip-rule="evenodd"
            d="M16.8083 1.09076L18.263 3.80446C18.4207 3.88633 18.5769 3.97244 18.73 4.06142L21.9242 3.90483C22.442 3.8792 22.9433 4.08138 23.284 4.45369C24.4467 5.72297 25.3388 7.19516 25.9111 8.78906C26.0792 9.25606 26.0127 9.77144 25.7303 10.1858C25.7303 10.1858 23.9909 12.7435 23.9909 12.7428C23.9954 12.9144 23.9954 13.0859 23.9909 13.2561L25.7303 15.8139C26.0127 16.2282 26.0792 16.7436 25.9111 17.2106C25.3388 18.8045 24.4467 20.2767 23.284 21.546C22.9433 21.9183 22.442 22.1204 21.9242 22.0948C21.9242 22.0948 18.7293 21.9382 18.73 21.9382C18.5761 22.0279 18.4207 22.1133 18.263 22.1952L16.8083 24.9089C16.5729 25.3488 16.138 25.6613 15.6292 25.7567C13.8943 26.0806 12.11 26.0806 10.3751 25.7567C9.86625 25.6613 9.43139 25.3488 9.19603 24.9089L7.74126 22.1952C7.58361 22.1133 7.42745 22.0272 7.27427 21.9382L4.08012 22.0948C3.56232 22.1204 3.06096 21.9183 2.72025 21.546C1.55764 20.2767 0.665517 18.8045 0.0931785 17.2106C-0.0749364 16.7436 -0.00843432 16.2282 0.273999 15.8139C0.273999 15.8139 2.01343 13.2561 2.01343 13.2568C2.00895 13.0853 2.00895 12.9137 2.01343 12.7436L0.273999 10.1858C-0.00843432 9.77144 -0.0749364 9.25606 0.0931785 8.78906C0.665517 7.19516 1.55764 5.72297 2.72025 4.45369C3.06096 4.08138 3.56232 3.8792 4.08012 3.90483C4.08012 3.90483 7.27502 4.06142 7.27427 4.06142C7.42819 3.97173 7.58361 3.88633 7.74126 3.80446L9.19603 1.09076C9.43139 0.650822 9.86625 0.338321 10.3751 0.242929C12.11 -0.0809764 13.8943 -0.0809764 15.6292 0.242929C16.138 0.338321 16.5729 0.650822 16.8083 1.09076ZM14.1902 3.2855C13.4012 3.19794 12.6039 3.19794 11.8141 3.2855L10.5021 5.73224C10.3332 6.0476 10.0598 6.30103 9.72504 6.45338C9.3649 6.61711 9.01895 6.80719 8.69019 7.02218C8.38459 7.22293 8.01696 7.32185 7.64636 7.30334L4.766 7.16239C4.29154 7.76962 3.89332 8.42813 3.57802 9.12293L5.14634 11.4287C5.34883 11.7256 5.44222 12.0779 5.41308 12.431C5.3817 12.8097 5.3817 13.1899 5.41308 13.5686C5.44222 13.9217 5.34883 14.2741 5.14634 14.5709L3.57802 16.8767C3.89332 17.5722 4.29154 18.23 4.766 18.8373L7.64636 18.6963C8.01696 18.6778 8.38459 18.7767 8.69019 18.9775C9.01895 19.1925 9.3649 19.3825 9.72504 19.5463C10.0598 19.6986 10.3332 19.952 10.5021 20.2674L11.8141 22.7141C12.6039 22.8017 13.4012 22.8017 14.1902 22.7141L15.5022 20.2674C15.6711 19.952 15.9445 19.6986 16.2793 19.5463C16.6394 19.3825 16.9853 19.1925 17.3141 18.9775C17.6197 18.7767 17.9873 18.6778 18.3579 18.6963L21.2383 18.8373C21.7128 18.23 22.111 17.5715 22.4263 16.8767L20.858 14.5709C20.6555 14.2741 20.5621 13.9217 20.5912 13.5686C20.6226 13.1899 20.6226 12.8097 20.5912 12.431C20.5621 12.0779 20.6555 11.7256 20.858 11.4287L22.4263 9.12293C22.111 8.42742 21.7128 7.76962 21.2383 7.16239L18.3579 7.30334C17.9873 7.32185 17.6197 7.22293 17.3141 7.02218C16.9853 6.80719 16.6394 6.61711 16.2793 6.45338C15.9445 6.30103 15.6711 6.0476 15.5022 5.73224L14.1902 3.2855ZM13.0021 8.59897C15.5515 8.59897 17.6212 10.5709 17.6212 12.9998C17.6212 15.4288 15.5515 17.4007 13.0021 17.4007C10.4528 17.4007 8.38309 15.4288 8.38309 12.9998C8.38309 10.5709 10.4528 8.59897 13.0021 8.59897ZM13.0021 11.8188C12.3185 11.8188 11.7626 12.3484 11.7626 12.9998C11.7626 13.6512 12.3185 14.1808 13.0021 14.1808C13.6858 14.1808 14.2417 13.6512 14.2417 12.9998C14.2417 12.3484 13.6858 11.8188 13.0021 11.8188Z"
            fill="currentColor"
        />
    </g>
    <defs>
        <clipPath id="clip0_1711_16808">
            <rect width="26" height="26" fill="white" />
        </clipPath>
    </defs>
</svg>