<svg xmlns="http://www.w3.org/2000/svg" width="40" height="40" fill="white" viewBox="0 0 40 40">
    <g clip-path="url(#clip0_2276_2843)">
        <path
            fill-rule="evenodd"
            clip-rule="evenodd"
            d="M22.5079 8.00003H31.5079C36.1992 8.00003 40.0079 11.8088 40.0079 16.5V28.5C40.0079 33.1912 36.1992 37 31.5079 37H8.50782C3.81656 37 0.0078125 33.1912 0.0078125 28.5V16.5C0.0078125 11.8088 3.81656 8.00003 8.50782 8.00003H17.5079V5C17.5079 3.62 18.6279 2.5 20.0079 2.5C21.3879 2.5 22.5079 3.62 22.5079 5V8.00003ZM31.5079 13H8.50782C6.57656 13 5.00782 14.5688 5.00782 16.5V28.5C5.00782 30.4312 6.57656 32 8.50782 32H31.5079C33.4392 32 35.0079 30.4312 35.0079 28.5V16.5C35.0079 14.5688 33.4392 13 31.5079 13ZM10.5079 21C9.12786 21 8.00786 19.88 8.00786 18.5C8.00786 17.12 9.12786 16 10.5079 16H12.3829C13.7629 16 14.8829 17.12 14.8829 18.5C14.8829 19.88 13.7629 21 12.3829 21H10.5079ZM19.1953 21C17.8153 21 16.6953 19.88 16.6953 18.5C16.6953 17.12 17.8153 16 19.1953 16H21.0703C22.4503 16 23.5703 17.12 23.5703 18.5C23.5703 19.88 22.4503 21 21.0703 21H19.1953ZM27.8829 21C26.5029 21 25.3829 19.88 25.3829 18.5C25.3829 17.12 26.5029 16 27.8829 16H29.7579C31.1379 16 32.2579 17.12 32.2579 18.5C32.2579 19.88 31.1379 21 29.7579 21H27.8829ZM10.5079 29C9.12786 29 8.00786 27.88 8.00786 26.5C8.00786 25.12 9.12786 24 10.5079 24H12.3829C13.7629 24 14.8829 25.12 14.8829 26.5C14.8829 27.88 13.7629 29 12.3829 29H10.5079ZM19.1953 29C17.8153 29 16.6953 27.88 16.6953 26.5C16.6953 25.12 17.8153 24 19.1953 24H29.7579C31.1379 24 32.2579 25.12 32.2579 26.5C32.2579 27.88 31.1379 29 29.7579 29H19.1953Z"
        />
    </g>
    <defs>
        <clipPath id="clip0_2276_2843">
            <rect width="40" height="40" />
        </clipPath>
    </defs>
</svg>