<svg width="40" height="40" viewBox="0 0 40 40" fill="white" xmlns="http://www.w3.org/2000/svg">
    <path
        fill-rule="evenodd"
        clip-rule="evenodd"
        d="M33.6754 0C36.258 0 38.5004 1.67248 38.9162 4.22136C39.4425 7.44727 40 12.6087 40 20C40 27.3913 39.4425 32.5527 38.9162 35.7786C38.5004 38.3275 36.258 40 33.6754 40H6.32455C3.74197 40 1.4996 38.3275 1.08376 35.7786C0.557461 32.5527 0 27.3913 0 20C0 12.6087 0.557461 7.44727 1.08376 4.22136C1.4996 1.67248 3.74197 0 6.32455 0H33.6754ZM16.5858 10.5858C17.3668 9.80474 18.6332 9.80474 19.4142 10.5858C20.1953 11.3668 20.1953 12.6332 19.4142 13.4142L15.1698 17.6586C15.0439 17.7846 15.1331 18 15.3113 18H30C31.1046 18 32 18.8954 32 20C32 21.1046 31.1046 22 30 22H15.3113C15.1331 22 15.0439 22.2154 15.1698 22.3414L19.4142 26.5858C20.1953 27.3668 20.1953 28.6332 19.4142 29.4142C18.6332 30.1953 17.3668 30.1953 16.5858 29.4142L8.58579 21.4142C7.80474 20.6332 7.80474 19.3668 8.58579 18.5858L16.5858 10.5858Z"
    />
</svg>