<svg width="40" height="40" viewBox="0 0 40 40" fill="white" xmlns="http://www.w3.org/2000/svg">
    <path
        fill-rule="evenodd"
        clip-rule="evenodd"
        d="M30 4V0H26V4H22C19.7908 4 18 5.79086 18 8V12L17.456 12H11.4204C7.22705 12 3.60377 14.9314 2.72904 19.0321L0.112421 31.2999C-0.337005 33.401 0.587242 35.558 2.41669 36.6841L4.96977 38.2558C7.27611 39.6742 10.2052 39.4662 12.2805 37.7925C12.58 37.5509 12.7969 37.2257 12.9528 36.8739L15.7364 30.5947C15.8967 30.2331 16.255 30 16.6506 30H23.3487C23.7446 30 24.1032 30.2336 24.2633 30.5957L27.0373 36.8721C27.1933 37.225 27.4106 37.5514 27.7111 37.7936C29.7863 39.4663 32.7146 39.6739 35.0205 38.2558L37.5735 36.6841C39.403 35.558 40.3272 33.401 39.8778 31.2999L37.2612 19.0321C36.3865 14.9314 32.7632 12 28.5698 12H22.5343H22V8H26C28.2091 8 30 6.20914 30 4ZM23 19.0625C23 20.7194 21.6569 22.0625 20 22.0625C18.3431 22.0625 17 20.7194 17 19.0625C17 17.4056 18.3431 16.0625 20 16.0625C21.6569 16.0625 23 17.4056 23 19.0625Z"
    />
</svg>