<svg xmlns="http://www.w3.org/2000/svg" xmlns:xlink="http://www.w3.org/1999/xlink" id="body_1"
    width="41" height="41" fill="white">
    <g transform="matrix(0.080078125 0 0 0.080078125 0 0)">
        <path
            d="M446.324 1.439C 432.414 5.789 422.774 18.844 422.766 33.341C 422.764 37.279 423.285 41.818 423.924 43.429C 424.91 45.914 424.815 46.614 423.293 48.048C 421.723 49.529 289.693 142.901 282.888 147.344C 280.335 149.01 280.158 148.971 275.212 145.642C 265.678 139.227 252.319 138.271 242.403 143.296L242.403 143.296L237.346 145.859L209.068 117.568L180.791 89.278L183.025 83.152C 185.948 75.136 185.488 63.979 181.928 56.5C 178.77 49.867 172.198 43.452 165.196 40.17C 160.423 37.933 158.122 37.5 151 37.5C 143.786 37.5 141.667 37.909 136.993 40.205C 129.805 43.735 123.357 50.149 120.108 57C 117.882 61.694 117.506 63.819 117.542 71.5C 117.577 78.741 118.02 81.375 119.812 84.978L119.812 84.978L122.039 89.456L98.106 113.389L74.174 137.321L69.125 135.149C 50.475 127.126 28.854 136.782 22.995 155.752C 20.623 163.43 20.478 168.879 22.465 175.568C 25.646 186.278 33.986 195.087 44.218 198.545C 46.832 199.428 52.119 200.13 56.069 200.117C 74.248 200.06 88.977 185.254 89.14 166.872C 89.187 161.56 88.585 157.859 86.984 153.626L86.984 153.626L84.764 147.752L108.556 123.944L132.348 100.137L135.978 101.989C 144.904 106.542 157.141 106.519 166.133 101.932L166.133 101.932L170.301 99.806L198.649 128.154L226.997 156.502L224.936 161.926C 222.832 167.462 222.212 176.909 223.581 182.577C 225.679 191.272 233.278 200.581 242 205.145C 245.853 207.161 247.939 207.5 256.5 207.5C 265.088 207.5 267.202 207.154 271.474 205.052C 278.16 201.762 284.593 195.119 287.795 188.196C 290.014 183.399 290.406 181.237 290.276 174.5C 290.192 170.1 289.982 165.246 289.811 163.712C 289.516 161.071 293.276 158.258 361.42 110.137L361.42 110.137L433.339 59.35L438.712 62.586C 449.442 69.046 460.429 69.525 471.614 64.018C 483.426 58.203 490.213 47.113 490.293 33.496C 490.422 11.202 467.815 -5.28 446.324 1.439M452.5 14.931C 445.862 16.528 439.853 22.266 438.06 28.723C 436.756 33.42 436.754 34.574 438.044 39.219C 442.39 54.869 463.695 57.875 473.09 44.163C 475.042 41.315 475.5 39.384 475.5 34C 475.5 28.423 475.057 26.685 472.749 23.197C 468.56 16.867 459.622 13.219 452.5 14.931M143.5 53.333C 141.85 54.083 138.838 56.538 136.807 58.789C 124.239 72.712 137.801 94.9 155.901 90.027C 160.653 88.747 166.388 84.085 168.694 79.625C 172.651 71.973 169.374 60.261 161.89 55.308C 157.057 52.11 148.265 51.166 143.5 53.333M421.315 142.987C 420.114 143.482 418.651 144.783 418.065 145.878C 417.325 147.262 417 195.419 417 303.934L417 303.934L417 460L406 460L395 460L395 323.611C 395 190.813 394.95 187.159 393.088 184.861L393.088 184.861L391.177 182.5L356 182.5L320.823 182.5L318.912 184.861C 317.05 187.159 317 190.813 317 323.611L317 323.611L317 460L306 460L295 460L295 383.611C 295 309.888 294.933 307.139 293.088 304.861L293.088 304.861L291.177 302.5L256 302.5L220.823 302.5L218.912 304.861C 217.067 307.139 217 309.888 217 383.611L217 383.611L217 460L206 460L195 460L195 343.611C 195 230.505 194.946 227.155 193.088 224.861L193.088 224.861L191.177 222.5L156 222.5L120.823 222.5L118.912 224.861C 117.054 227.155 117 230.505 117 343.611L117 343.611L117 460L106 460L95 460L95 423.611C 95 389.272 94.892 387.089 93.088 384.861L93.088 384.861L91.177 382.5L56 382.5L20.823 382.5L18.912 384.861C 17.108 387.089 17 389.272 17 423.611L17 423.611L17 460L10.5 460C -0.141 460 0 459.65 0 486C -0 506.667 0.121 508.121 2 510C 3.989 511.989 5.333 512 256.048 512L256.048 512L508.095 512L510.548 509.354C 512.996 506.712 513 506.676 513 484.687C 513 472.576 512.738 462.929 512.417 463.25C 512.096 463.571 510.971 462.971 509.917 461.917C 508.421 460.421 506.572 460 501.5 460L501.5 460L495 460L495 303.611C 495 151.149 494.952 147.162 493.089 144.861L493.089 144.861L491.179 142.5L457.339 142.294C 438.728 142.18 422.517 142.492 421.315 142.987M47.481 148.394C 44.052 149.888 38.326 156.013 36.933 159.676C 34.315 166.562 37.266 176.828 43.141 181.274C 56.454 191.348 74.467 182.466 74.467 165.826C 74.467 161.119 73.944 159.373 71.47 155.812C 66.174 148.191 55.513 144.894 47.481 148.394M247.871 156.95C 241.681 160.316 237.011 167.648 237.011 174C 237.011 180.262 242.352 188.579 248.372 191.693C 256.16 195.72 267.679 192.464 272.749 184.803C 275.057 181.315 275.5 179.577 275.5 174C 275.5 166.42 273.268 162.093 267.222 157.95C 262.434 154.669 252.965 154.18 247.871 156.95M432 308.5L432 460L456 460L480 460L480 308.5L480 157L456 157L432 157L432 308.5zM332 328.5L332 460L356 460L380 460L380 328.5L380 197L356 197L332 197L332 328.5zM132 348.5L132 460L156 460L180 460L180 348.5L180 237L156 237L132 237L132 348.5zM232 388.5L232 460L256 460L280 460L280 388.5L280 317L256 317L232 317L232 388.5zM32 428.5L32 460L56 460L80 460L80 428.5L80 397L56 397L32 397L32 428.5zM0.428 486C 0.428 498.375 0.571 503.438 0.747 497.25C 0.922 491.063 0.922 480.938 0.747 474.75C 0.571 468.563 0.428 473.625 0.428 486M14 486.5L14 498L256 498L498 498L498 486.5L498 475L256 475L14 475L14 486.5"
            stroke="none"
            fill-rule="nonzero"
        />
    </g>
</svg>