<svg width="26" height="26" viewBox="0 0 26 26" fill="none" xmlns="http://www.w3.org/2000/svg">
    <g clip-path="url(#clip0_1711_16773)">
        <path fill-rule="evenodd" clip-rule="evenodd"
            d="M2.87302 12.4522L2.68616 12.609C2.00366 13.1924 0.979847 13.1136 0.394846 12.4327C-0.190155 11.751 -0.108929 10.7248 0.573573 10.1406L11.9486 0.390609C12.558 -0.130203 13.4518 -0.130203 14.0612 0.390609L25.4362 10.1406C26.1187 10.7248 26.1999 11.751 25.6149 12.4327C25.0299 13.1136 24.0061 13.1924 23.3236 12.609L23.1368 12.4522L21.1055 24.6421C20.9755 25.4254 20.3012 25.9998 19.5049 25.9998H6.50488C5.70862 25.9998 5.03427 25.4254 4.90427 24.6421L2.87302 12.4522ZM20.1061 10.8849C20.2036 10.3234 19.9925 9.75467 19.5618 9.38417C18.2862 8.29136 15.5643 5.96112 14.0612 4.67168C13.4518 4.15006 12.558 4.15006 11.9486 4.67168C10.4455 5.96112 7.72357 8.29136 6.44795 9.38417C6.01732 9.75467 5.80613 10.3234 5.90363 10.8849C6.26926 13.0941 7.21981 18.7743 7.65857 21.3921C7.78857 22.1754 8.46292 22.7498 9.25917 22.7498C11.2173 22.7498 14.7925 22.7498 16.7506 22.7498C17.5469 22.7498 18.2212 22.1754 18.3512 21.3921C18.79 18.7743 19.7405 13.0941 20.1061 10.8849ZM13.0049 9.86436C14.7355 9.86436 16.1412 11.2692 16.1412 12.9998C16.1412 14.7304 14.7355 16.1353 13.0049 16.1353C11.2743 16.1353 9.86855 14.7304 9.86855 12.9998C9.86855 11.2692 11.2743 9.86436 13.0049 9.86436Z"
            fill="currentColor" />
    </g>
    <defs>
        <clipPath id="clip0_1711_16773">
            <rect width="26" height="26" fill="white" />
        </clipPath>
    </defs>
</svg>