<svg
    width="60"
    height="60"
    viewBox="0 0 60 60"
    fill="none"
    xmlns="http://www.w3.org/2000/svg"
>
    <g filter="url(#filter0_b_2276_2754)">
        <rect
            width="60"
            height="60"
            rx="10"
            fill="black"
            fill-opacity="0.6"
        />
    </g>
    <g clip-path="url(#clip0_2276_2754)">
        <path
            fill-rule="evenodd"
            clip-rule="evenodd"
            d="M33.8063 18.0908L35.2611 20.8045C35.4187 20.8863 35.5749 20.9724 35.7281 21.0614L38.9222 20.9048C39.44 20.8792 39.9414 21.0814 40.2821 21.4537C41.4447 22.723 42.3368 24.1952 42.9092 25.7891C43.0773 26.2561 43.0108 26.7714 42.7283 27.1858C42.7283 27.1858 40.9889 29.7435 40.9889 29.7428C40.9934 29.9144 40.9934 30.0859 40.9889 30.2561L42.7283 32.8139C43.0108 33.2282 43.0773 33.7436 42.9092 34.2106C42.3368 35.8045 41.4447 37.2767 40.2821 38.546C39.9414 38.9183 39.44 39.1204 38.9222 39.0948C38.9222 39.0948 35.7273 38.9382 35.7281 38.9382C35.5742 39.0279 35.4187 39.1133 35.2611 39.1952L33.8063 41.9089C33.571 42.3488 33.1361 42.6613 32.6273 42.7567C30.8923 43.0806 29.1081 43.0806 27.3731 42.7567C26.8643 42.6613 26.4294 42.3488 26.1941 41.9089L24.7393 39.1952C24.5817 39.1133 24.4255 39.0272 24.2723 38.9382L21.0782 39.0948C20.5604 39.1204 20.059 38.9183 19.7183 38.546C18.5557 37.2767 17.6636 35.8045 17.0912 34.2106C16.9231 33.7436 16.9896 33.2282 17.272 32.8139C17.272 32.8139 19.0115 30.2561 19.0115 30.2568C19.007 30.0853 19.007 29.9137 19.0115 29.7436L17.272 27.1858C16.9896 26.7714 16.9231 26.2561 17.0912 25.7891C17.6636 24.1952 18.5557 22.723 19.7183 21.4537C20.059 21.0814 20.5604 20.8792 21.0782 20.9048C21.0782 20.9048 24.2731 21.0614 24.2723 21.0614C24.4262 20.9717 24.5817 20.8863 24.7393 20.8045L26.1941 18.0908C26.4294 17.6508 26.8643 17.3383 27.3731 17.2429C29.1081 16.919 30.8923 16.919 32.6273 17.2429C33.1361 17.3383 33.571 17.6508 33.8063 18.0908ZM31.1882 20.2855C30.3992 20.1979 29.6019 20.1979 28.8122 20.2855L27.5001 22.7322C27.3313 23.0476 27.0578 23.301 26.7231 23.4534C26.3629 23.6171 26.017 23.8072 25.6882 24.0222C25.3826 24.2229 25.015 24.3219 24.6444 24.3033L21.764 24.1624C21.2896 24.7696 20.8914 25.4281 20.5761 26.1229L22.1444 28.4287C22.3469 28.7256 22.4403 29.0779 22.4111 29.431C22.3797 29.8097 22.3797 30.1899 22.4111 30.5686C22.4403 30.9217 22.3469 31.2741 22.1444 31.5709L20.5761 33.8767C20.8914 34.5722 21.2896 35.23 21.764 35.8373L24.6444 35.6963C25.015 35.6778 25.3826 35.7767 25.6882 35.9775C26.017 36.1925 26.3629 36.3825 26.7231 36.5463C27.0578 36.6986 27.3313 36.952 27.5001 37.2674L28.8122 39.7141C29.6019 39.8017 30.3992 39.8017 31.1882 39.7141L32.5003 37.2674C32.6691 36.952 32.9426 36.6986 33.2773 36.5463C33.6374 36.3825 33.9834 36.1925 34.3122 35.9775C34.6178 35.7767 34.9854 35.6778 35.356 35.6963L38.2363 35.8373C38.7108 35.23 39.109 34.5715 39.4243 33.8767L37.856 31.5709C37.6535 31.2741 37.5601 30.9217 37.5893 30.5686C37.6206 30.1899 37.6206 29.8097 37.5893 29.431C37.5601 29.0779 37.6535 28.7256 37.856 28.4287L39.4243 26.1229C39.109 25.4274 38.7108 24.7696 38.2363 24.1624L35.356 24.3033C34.9854 24.3219 34.6178 24.2229 34.3122 24.0222C33.9834 23.8072 33.6374 23.6171 33.2773 23.4534C32.9426 23.301 32.6691 23.0476 32.5003 22.7322L31.1882 20.2855ZM30.0002 25.599C32.5496 25.599 34.6193 27.5709 34.6193 29.9998C34.6193 32.4288 32.5496 34.4007 30.0002 34.4007C27.4508 34.4007 25.3811 32.4288 25.3811 29.9998C25.3811 27.5709 27.4508 25.599 30.0002 25.599ZM30.0002 28.8188C29.3165 28.8188 28.7606 29.3484 28.7606 29.9998C28.7606 30.6512 29.3165 31.1808 30.0002 31.1808C30.6839 31.1808 31.2398 30.6512 31.2398 29.9998C31.2398 29.3484 30.6839 28.8188 30.0002 28.8188Z"
            fill="white"
        />
    </g>
    <defs>
        <filter
            id="filter0_b_2276_2754"
            x="-18"
            y="-18"
            width="96"
            height="96"
            filterUnits="userSpaceOnUse"
            color-interpolation-filters="sRGB"
        >
            <feFlood flood-opacity="0" result="BackgroundImageFix" />
            <feGaussianBlur in="BackgroundImageFix" stdDeviation="9" />
            <feComposite
                in2="SourceAlpha"
                operator="in"
                result="effect1_backgroundBlur_2276_2754"
            />
            <feBlend
                mode="normal"
                in="SourceGraphic"
                in2="effect1_backgroundBlur_2276_2754"
                result="shape"
            />
        </filter>
        <clipPath id="clip0_2276_2754">
            <rect
                width="26"
                height="26"
                fill="white"
                transform="translate(17 17)"
            />
        </clipPath>
    </defs>
</svg>