<svg width="48" height="48" viewBox="0 0 26 26" fill="none" xmlns="http://www.w3.org/2000/svg">
    <g clip-path="url(#clip0_1711_16768)">
        <path fill-rule="evenodd" clip-rule="evenodd"
            d="M16.518 18.8118C14.8012 20.0623 12.6879 20.8 10.4039 20.8C4.6636 20.8 0.00390625 16.1403 0.00390625 10.4C0.00390625 4.65968 4.6636 0 10.4039 0C16.1442 0 20.8039 4.65968 20.8039 10.4C20.8039 12.6839 20.0662 14.7973 18.8158 16.5141L25.4929 23.1912C26.1274 23.825 26.1274 24.8552 25.4929 25.4889C24.8591 26.1235 23.8289 26.1235 23.1952 25.4889L16.518 18.8118ZM10.4039 3.25C6.4576 3.25 3.25391 6.45368 3.25391 10.4C3.25391 14.3463 6.4576 17.55 10.4039 17.55C14.3502 17.55 17.5539 14.3463 17.5539 10.4C17.5539 6.45368 14.3502 3.25 10.4039 3.25Z"
            fill="currentColor"
        />
    </g>
    <defs>
        <clipPath id="clip0_1711_16768">
            <rect width="26" height="26" fill="white" />
        </clipPath>
    </defs>
</svg>