<svg width="48" height="48" viewBox="0 0 26 26" fill="none" xmlns="http://www.w3.org/2000/svg">
    <g clip-path="url(#clip0_1711_16803)">
        <path fill-rule="evenodd" clip-rule="evenodd"
            d="M13.002 0C20.1772 0 26.002 5.82481 26.002 13C26.002 20.1752 20.1772 26 13.002 26C5.82678 26 0.00195312 20.1752 0.00195312 13C0.00195312 5.82481 5.82678 0 13.002 0ZM13.002 3.25C7.62078 3.25 3.25196 7.61881 3.25196 13C3.25196 18.3812 7.62078 22.75 13.002 22.75C18.3832 22.75 22.752 18.3812 22.752 13C22.752 7.61881 18.3832 3.25 13.002 3.25ZM13.002 6.85423V11.2938C13.002 11.518 13.184 11.7 13.4082 11.7H18.9869C19.1429 11.7 19.2842 11.7894 19.3525 11.9291C19.4199 12.0697 19.4021 12.2362 19.3054 12.3589L13.7268 19.3984C13.6195 19.5333 13.4383 19.5861 13.275 19.5293C13.1117 19.4724 13.002 19.3188 13.002 19.1458V14.7062C13.002 14.482 12.82 14.3 12.5957 14.3H7.01707C6.86107 14.3 6.71974 14.2106 6.65149 14.0709C6.58405 13.9303 6.60191 13.7638 6.6986 13.6411L12.2772 6.60156C12.3845 6.46669 12.5657 6.41387 12.729 6.47074C12.8923 6.52762 13.002 6.68117 13.002 6.85423Z"
            fill="currentColor" />
    </g>
    <defs>
        <clipPath id="clip0_1711_16803">
            <rect width="26" height="26" fill="white" />
        </clipPath>
    </defs>
</svg>