<svg width="26" height="26" viewBox="0 0 26 26" fill="none" xmlns="http://www.w3.org/2000/svg">
    <path fill-rule="evenodd" clip-rule="evenodd"
        d="M14.4274 6.32856H18.2901C20.9738 6.32856 23.2926 8.20463 23.8524 10.829L25.527 18.6802C25.8146 20.0248 25.2231 21.4053 24.0523 22.126L22.4184 23.1319C20.8356 24.1052 18.7946 23.8818 17.4605 22.5883L13.9318 19.1661H11.673L8.14436 22.5883C6.81023 23.8818 4.76918 24.1052 3.18643 23.1319L1.5525 22.126C0.381685 21.4053 -0.209819 20.0248 0.0778072 18.6802L1.7524 10.829C2.31222 8.20463 4.63105 6.32856 7.31475 6.32856H11.1774V3.65625C11.1774 2.75925 11.9054 2.03125 12.8024 2.03125C13.6994 2.03125 14.4274 2.75925 14.4274 3.65625V6.32856ZM18.2901 9.57856H7.31475C6.16424 9.57856 5.17059 10.3821 4.9309 11.5074L3.2563 19.3578L4.89028 20.3637C5.20635 20.5587 5.61501 20.514 5.88151 20.2548L9.88392 16.3743C10.187 16.0802 10.5924 15.9161 11.0149 15.9161H14.5899C15.0124 15.9161 15.4178 16.0802 15.7209 16.3743L19.7233 20.2548C19.9898 20.514 20.3985 20.5587 20.7145 20.3637L22.3485 19.3578L20.6739 11.5074C20.4342 10.3821 19.4406 9.57856 18.2901 9.57856Z"
        fill="currentColor"
    />
</svg>