<svg width="90" height="90" viewBox="0 0 90 90" fill="none" xmlns="http://www.w3.org/2000/svg">
<g clip-path="url(#clip0_1711_13036)">
<path fill-rule="evenodd" clip-rule="evenodd" d="M44.9873 0C69.8123 0 89.9873 20.1637 89.9873 45C89.9873 69.8363 69.8123 90 44.9873 90C20.1623 90 -0.0126953 69.8363 -0.0126953 45C-0.0126953 20.1637 20.1623 0 44.9873 0ZM44.9873 7.5C24.2873 7.5 7.4873 24.303 7.4873 45C7.4873 65.697 24.2873 82.5 44.9873 82.5C65.6873 82.5 82.4873 65.697 82.4873 45C82.4873 24.303 65.6873 7.5 44.9873 7.5ZM41.2373 24.375C41.2373 22.305 42.9623 20.625 44.9873 20.625C47.0873 20.625 48.7373 22.305 48.7373 24.375V50.625C48.7373 52.6942 47.0873 54.375 44.9873 54.375C42.9623 54.375 41.2373 52.6942 41.2373 50.625V24.375ZM44.9873 61.875C47.0873 61.875 48.7373 63.555 48.7373 65.625C48.7373 67.6943 47.0873 69.375 44.9873 69.375C42.9623 69.375 41.2373 67.6943 41.2373 65.625C41.2373 63.555 42.9623 61.875 44.9873 61.875Z" fill="url(#paint0_linear_1711_13036)"/>
</g>
<defs>
<linearGradient id="paint0_linear_1711_13036" x1="91.4654" y1="0" x2="-0.0126953" y2="0" gradientUnits="userSpaceOnUse">
<stop stop-color="#8A54D0"/>
<stop offset="1" stop-color="#D71F7B"/>
</linearGradient>
<clipPath id="clip0_1711_13036">
<rect width="90" height="90" fill="white"/>
</clipPath>
</defs>
</svg>
