<svg width="26" height="26" viewBox="0 0 26 26" fill="none" xmlns="http://www.w3.org/2000/svg">
    <g clip-path="url(#clip0_1711_16346)">
        <path fill-rule="evenodd" clip-rule="evenodd"
            d="M0.00585938 1.625C0.00585938 0.728 0.733861 0 1.63086 0C2.52787 0 3.25587 0.728 3.25587 1.625V24.375C3.25587 25.272 2.52787 26 1.63086 26C0.733861 26 0.00585938 25.272 0.00585938 24.375V1.625ZM20.4582 14.625H8.78087C7.88387 14.625 7.15587 13.897 7.15587 13C7.15587 12.103 7.88387 11.375 8.78087 11.375H20.4582L18.032 8.94886C17.3974 8.31511 17.3974 7.28485 18.032 6.6511C18.6658 6.01654 19.696 6.01654 20.3298 6.6511L25.5298 11.8511C25.8353 12.1566 26.0059 12.5677 26.0059 13C26.0059 13.4323 25.8353 13.8434 25.5298 14.1489L20.3298 19.3489C19.696 19.9835 18.6658 19.9835 18.032 19.3489C17.3974 18.7151 17.3974 17.6849 18.032 17.0511L20.4582 14.625Z"
            fill="currentColor"
        />
    </g>
    <defs>
        <clipPath id="clip0_1711_16346">
            <rect width="26" height="26" fill="white" />
        </clipPath>
    </defs>
</svg>